<?xml version="1.0" standalone="no"?>
<!DOCTYPE svg PUBLIC "-//W3C//DTD SVG 20010904//EN"
 "http://www.w3.org/TR/2001/REC-SVG-20010904/DTD/svg10.dtd">
<svg version="1.0" xmlns="http://www.w3.org/2000/svg"
 width="512.000000pt" height="512.000000pt" viewBox="0 0 512.000000 512.000000"
 preserveAspectRatio="xMidYMid meet">
<metadata>
Created by potrace 1.16, written by Peter Selinger 2001-2019
</metadata>
<g transform="translate(0.000000,512.000000) scale(0.100000,-0.100000)"
fill="#000000" stroke="none">
<path d="M3051 4449 c-14 -5 -31 -7 -40 -4 -23 9 -108 -88 -115 -133 -8 -45
-1 -134 12 -159 5 -10 10 -51 11 -92 1 -40 8 -89 16 -108 8 -20 15 -43 14 -52
0 -13 -2 -14 -6 -1 -3 8 -17 28 -31 45 -20 25 -23 36 -19 75 3 25 9 53 13 64
6 16 3 17 -27 11 -19 -4 -54 -18 -79 -30 -25 -13 -66 -28 -90 -35 -63 -16
-142 -73 -181 -128 -42 -61 -162 -146 -235 -167 -49 -14 -70 -29 -160 -117
-81 -78 -104 -107 -104 -128 0 -29 -31 -63 -97 -104 -45 -27 -118 -98 -135
-131 -6 -11 10 3 36 32 26 28 69 65 95 82 l49 30 -8 -29 c-11 -39 5 -96 36
-127 18 -18 33 -23 60 -21 44 3 51 16 30 57 -19 37 -20 52 -3 75 11 16 17 17
36 6 13 -6 20 -14 17 -18 -4 -3 -12 0 -18 6 -21 21 -28 13 -28 -30 0 -40 0
-41 20 -23 19 17 21 17 40 0 21 -19 50 -14 50 9 0 8 -10 16 -22 18 -19 3 -15
7 25 25 27 13 47 29 47 37 0 20 -11 20 -54 2 l-34 -14 -6 40 c-8 49 1 62 62
84 51 19 146 75 156 93 11 17 26 13 26 -6 0 -16 3 -15 18 3 9 12 40 33 67 47
28 14 78 45 112 71 34 25 60 39 57 31 -3 -8 -1 -61 6 -118 11 -95 10 -107 -8
-155 -11 -28 -36 -74 -57 -102 l-37 -50 -62 0 c-75 0 -99 -14 -253 -148 -114
-99 -132 -108 -289 -146 -248 -59 -519 -164 -638 -245 -35 -24 -49 -43 -65
-86 -12 -31 -21 -66 -21 -78 0 -36 -17 -46 -58 -35 -20 6 -52 7 -72 4 -31 -5
-39 -2 -49 17 -9 17 -10 17 -5 2 3 -11 7 -34 8 -51 1 -23 18 -51 65 -105 35
-41 65 -72 66 -69 1 3 49 -28 106 -68 99 -69 114 -76 289 -132 118 -38 266
-76 410 -106 323 -65 294 -53 346 -135 25 -39 53 -73 61 -76 34 -13 282 101
263 120 -3 3 -43 12 -90 21 -261 47 -936 201 -1080 246 -84 26 -106 39 -190
106 -99 78 -210 183 -210 196 0 4 26 7 58 7 31 -1 45 -4 30 -6 -40 -6 -35 -25
20 -69 26 -21 75 -64 108 -96 34 -31 80 -66 102 -77 87 -44 550 -146 982 -217
317 -51 320 -52 320 -62 0 -5 -55 0 -122 9 -68 10 -134 18 -148 17 -30 0 84
-24 200 -41 l85 -13 32 -53 c17 -29 55 -110 83 -181 29 -71 63 -140 77 -154
30 -31 115 -57 206 -64 37 -2 67 -9 67 -13 0 -5 -1 -9 -3 -9 -2 0 -29 -5 -60
-11 -40 -7 -86 -7 -154 1 -53 6 -98 8 -101 6 -2 -3 41 -27 96 -55 96 -46 103
-48 147 -39 59 13 87 -4 108 -64 10 -27 16 -35 16 -22 1 34 -20 84 -39 94 -10
6 -43 10 -73 10 -36 0 -59 5 -67 15 -11 13 -7 15 24 15 21 0 47 -5 58 -11 18
-10 20 -9 15 5 -8 21 2 20 33 -1 25 -17 25 -16 7 4 -16 18 -16 21 -3 26 11 4
21 -4 33 -26 23 -43 30 -13 9 38 -9 21 -16 39 -16 41 0 3 31 25 70 50 117 75
119 104 20 236 -65 86 -68 93 -53 110 21 23 11 33 -16 18 -24 -12 -41 -6 -41
15 0 7 28 39 63 70 105 98 122 143 70 192 -16 14 -27 29 -26 33 3 11 -60 58
-100 74 -17 8 -59 17 -92 21 l-60 7 -37 76 c-22 47 -32 79 -26 83 6 4 55 10
110 14 99 7 101 7 144 47 24 22 71 55 106 74 69 39 71 38 -47 17 -19 -3 -2 10
50 37 44 24 110 60 146 81 36 21 113 61 169 89 57 27 106 52 108 55 3 3 -19
-2 -49 -11 -69 -20 -222 -94 -369 -180 -169 -98 -190 -108 -201 -97 -7 7 32
34 118 81 245 135 328 182 321 182 -34 0 -264 -109 -388 -184 -123 -74 -115
-34 10 48 72 48 394 221 557 300 191 93 97 57 -163 -62 -273 -124 -365 -174
-467 -250 l-62 -47 -62 20 -62 20 55 85 c73 115 92 169 120 346 13 82 28 163
33 177 6 15 39 67 73 115 35 48 72 107 82 132 11 25 21 46 21 47 1 2 24 -8 52
-22 28 -13 63 -27 77 -31 23 -5 25 -9 14 -23 -11 -14 -11 -14 3 -3 13 10 26 8
74 -14 46 -21 67 -25 113 -22 48 4 60 10 82 37 60 71 55 139 -11 165 -22 9
-47 16 -57 16 -14 0 -12 4 8 21 25 20 25 20 1 9 -52 -26 -186 27 -226 89 -26
43 -48 60 -126 101 -26 14 -70 41 -97 60 -48 33 -49 36 -45 75 2 22 9 60 14
83 6 26 6 49 1 55 -17 23 -22 46 -8 41 16 -6 74 41 63 52 -4 4 -13 2 -19 -4
-15 -15 -58 -15 -78 -1 -11 8 -7 9 17 4 22 -4 40 -1 54 8 20 14 19 15 -21 10
-32 -5 -41 -3 -36 6 16 25 -60 82 -106 80 -13 0 -34 -5 -47 -10z m116 -33 c41
-35 26 -37 -36 -4 -50 26 -51 28 -23 28 18 0 42 -10 59 -24z m-42 -36 c-11 -5
-27 -9 -35 -9 -13 -1 -13 0 0 9 8 5 24 9 35 9 l20 0 -20 -9z m-135 -15 c0 -5
-56 -35 -66 -35 -12 0 41 39 54 40 6 0 12 -2 12 -5z m118 -21 c38 -15 81 -59
82 -81 0 -7 8 -13 18 -14 12 0 13 -2 3 -6 -8 -3 -20 2 -27 12 -10 13 -28 17
-81 17 -38 1 -80 -3 -93 -7 -24 -7 -24 -6 -5 8 15 12 17 18 7 29 -9 11 -8 19
4 36 18 26 41 28 92 6z m-173 -74 c-3 -5 -11 -10 -16 -10 -6 0 -7 5 -4 10 3 6
11 10 16 10 6 0 7 -4 4 -10z m11 -80 c0 -59 12 -108 34 -140 20 -27 35 -150
19 -150 -17 0 -37 64 -50 156 -6 49 -18 98 -25 109 -8 11 -14 32 -14 48 0 22
4 28 18 25 13 -3 17 -14 18 -48z m143 -8 c62 3 66 2 69 -19 2 -15 -2 -23 -12
-23 -8 0 -18 -4 -21 -10 -4 -6 7 -10 24 -10 17 0 30 3 30 8 -4 23 2 52 11 52
27 0 -9 -144 -41 -160 -11 -6 -30 -9 -42 -7 -19 3 -18 5 11 17 30 11 52 42 52
71 0 12 -57 12 -65 -1 -3 -5 -1 -10 4 -10 6 0 11 -7 11 -15 0 -22 -42 -18 -81
8 -34 22 -61 67 -73 121 l-7 29 32 -27 c29 -25 39 -27 98 -24z m95 33 c-4 -8
-13 -15 -22 -15 -13 0 -12 3 4 15 24 18 25 18 18 0z m-359 -197 c-3 -18 -8
-38 -9 -45 -1 -7 -13 -22 -27 -35 -13 -13 -35 -37 -49 -55 -32 -41 -57 -32
-40 13 7 16 9 48 5 72 -6 39 -5 42 17 43 13 0 41 9 63 19 22 10 42 19 44 19 2
1 0 -14 -4 -31z m376 -41 c-11 -18 -30 -42 -43 -53 l-22 -19 23 35 c12 19 30
53 39 75 14 34 18 36 20 17 2 -12 -6 -37 -17 -55z m82 25 c18 -19 18 -21 -1
-59 -16 -31 -18 -47 -12 -88 5 -27 11 -58 15 -67 4 -10 3 -18 -3 -18 -11 0
-32 75 -32 114 0 15 -10 32 -23 43 -22 16 -22 19 -10 45 8 15 15 36 16 47 1
22 20 16 50 -17z m-603 -46 c0 -19 -27 -39 -40 -31 -8 5 -6 13 6 26 20 22 34
25 34 5z m381 -3 c-5 -10 -17 -27 -26 -38 -16 -19 -17 -19 -3 5 26 46 29 50
34 50 3 0 0 -8 -5 -17z m327 -7 c15 -8 35 -23 46 -35 18 -20 18 -20 -26 -32
-36 -10 -51 -22 -74 -55 -16 -23 -30 -41 -32 -40 -1 2 7 24 19 50 19 44 19 49
4 72 l-16 25 30 -15 c44 -23 48 -20 16 14 -23 24 -25 30 -11 30 9 0 29 -6 44
-14z m-496 -86 c29 -41 61 -76 70 -78 9 -2 53 22 96 52 77 54 123 77 72 35
-46 -37 -193 -139 -201 -139 -4 0 -30 21 -58 46 -29 26 -54 44 -57 42 -8 -8
33 -53 75 -82 l40 -28 48 27 c65 38 157 109 182 142 21 25 22 25 41 8 23 -21
56 -116 47 -138 -14 -37 -301 -214 -364 -224 -35 -6 -64 11 -85 52 -11 19 -10
19 9 3 17 -16 53 -25 53 -14 0 3 -28 61 -61 130 -58 118 -61 127 -49 156 15
37 66 93 79 88 5 -1 33 -37 63 -78z m-288 51 c17 -18 15 -20 -38 -49 -31 -17
-56 -28 -56 -25 0 9 63 93 70 93 4 0 15 -9 24 -19z m626 0 c5 -11 10 -27 10
-36 0 -12 -7 -8 -25 13 -29 34 -31 42 -10 42 8 0 19 -9 25 -19z m-273 -78 c-3
-10 -5 -4 -5 12 0 17 2 24 5 18 2 -7 2 -21 0 -30z m523 27 c0 -5 -11 -10 -24
-10 -34 0 -41 -16 -16 -37 26 -23 25 -31 -5 -43 -19 -7 -36 -6 -62 5 -36 15
-36 15 -17 37 40 45 124 78 124 48z m-840 -21 c0 -19 -69 -41 -98 -31 l-27 9
35 16 c41 18 90 22 90 6z m929 -43 c17 -9 20 -15 11 -21 -6 -4 -17 -2 -23 4
-43 43 -132 -56 -98 -111 9 -14 8 -18 -4 -18 -41 0 -29 64 21 120 39 43 55 47
93 26z m-1099 1 c0 -2 -22 -20 -50 -41 -28 -21 -50 -46 -50 -57 0 -26 -191
-181 -207 -168 -6 6 -24 14 -38 18 -27 7 -26 8 44 65 38 33 68 63 65 67 -2 4
1 11 7 15 8 4 9 3 5 -4 -4 -7 -5 -12 -3 -12 11 0 184 92 197 105 13 13 30 20
30 12z m67 -34 c-21 -24 -126 -87 -133 -81 -4 5 133 97 145 98 2 0 -3 -8 -12
-17z m1155 -15 c19 -15 58 -78 58 -94 0 -6 -14 -17 -31 -24 -25 -11 -36 -11
-62 2 -30 14 -32 19 -31 63 1 60 29 82 66 53z m-152 -28 c-17 -31 -9 -85 12
-85 22 0 43 -21 30 -29 -6 -3 -24 6 -41 20 -35 29 -40 66 -15 102 19 28 30 22
14 -8z m-47 -14 c-3 -18 0 -43 6 -54 9 -18 9 -21 -3 -16 -20 8 -30 58 -16 83
15 30 20 26 13 -13z m278 24 c26 -14 24 -49 -6 -102 -35 -63 -104 -88 -149
-55 -16 12 -10 13 42 9 60 -4 61 -4 81 29 25 41 26 71 5 104 -18 27 -7 33 27
15z m-205 -52 c-15 -21 -16 -22 -16 -2 0 11 6 26 12 32 19 19 22 -4 4 -30z
m-257 -45 c-5 -15 -40 -72 -77 -127 -37 -56 -74 -121 -83 -146 -11 -30 -26
-51 -47 -63 -59 -34 -64 -17 -14 48 47 61 95 151 127 240 23 63 21 61 44 41
17 -16 19 -15 35 9 21 33 28 32 15 -2z m-159 -136 c-42 -95 -42 -95 -99 -120
-31 -14 -75 -30 -99 -37 -24 -6 -49 -13 -57 -16 -18 -7 47 68 110 127 58 55
178 149 183 144 2 -2 -15 -46 -38 -98z m-50 88 c0 -15 -200 -145 -224 -145 -3
0 -3 7 0 15 3 8 20 19 37 25 18 6 66 32 107 59 83 55 80 53 80 46z m-972 -67
c17 -17 15 -33 -3 -18 -8 7 -26 10 -40 8 -20 -4 -23 -3 -14 8 14 17 41 18 57
2z m686 -85 c-13 -37 -27 -69 -31 -72 -3 -4 -3 3 1 14 4 11 14 46 23 77 9 32
20 55 24 52 5 -3 -3 -35 -17 -71z m-101 -37 c9 -33 13 -55 8 -50 -8 8 -41 108
-41 123 0 19 20 -24 33 -73z m-647 28 c-3 -9 -9 -27 -12 -40 -3 -13 -12 -24
-19 -24 -11 0 -10 8 2 40 9 22 20 40 26 40 5 0 6 -7 3 -16z m-53 -46 c-3 -16
-10 -28 -15 -28 -5 0 -7 -14 -3 -32 5 -25 4 -29 -4 -18 -14 20 -14 34 4 77 17
41 26 41 18 1z m1045 -50 c-14 -18 -30 -34 -36 -36 -7 -2 3 13 20 32 39 45 49
47 16 4z m-994 -36 c3 -19 2 -31 -3 -27 -5 3 -11 1 -13 -5 -1 -5 -4 11 -5 36
-2 51 11 48 21 -4z m-34 13 c0 -14 -2 -25 -4 -25 -2 0 -6 11 -8 25 -3 14 -1
25 3 25 5 0 9 -11 9 -25z m595 -46 c69 -21 187 -88 182 -103 -5 -14 -319 -187
-332 -183 -5 2 22 34 60 72 l70 67 -80 -64 -80 -64 -45 17 c-25 10 -64 18 -88
18 -27 1 -45 6 -48 15 -8 22 20 77 67 131 l43 50 -48 -45 c-26 -25 -60 -65
-77 -89 -29 -44 -29 -44 -29 -15 0 23 15 43 73 97 39 38 92 82 117 98 41 28
50 30 100 24 30 -4 81 -15 115 -26z m478 -76 c-15 -11 -15 -15 -4 -22 12 -8
12 -19 1 -71 -16 -76 -62 -174 -130 -277 -28 -42 -53 -87 -56 -100 -13 -51 2
-122 38 -176 61 -91 75 -128 71 -177 -7 -77 -13 -78 -40 -12 -14 35 -27 61
-29 59 -3 -3 17 -70 41 -136 4 -11 10 -10 26 5 21 19 21 18 8 -9 -7 -15 -17
-26 -22 -24 -6 2 -29 48 -52 103 -23 55 -59 124 -79 153 -20 29 -36 58 -36 65
0 6 10 -4 21 -21 22 -35 54 -46 45 -15 -17 52 -24 122 -16 156 5 21 31 75 58
120 89 146 105 184 100 238 -4 32 -13 57 -28 73 -13 14 -19 25 -13 25 15 0 43
-35 53 -66 7 -24 8 -20 9 28 1 51 -2 59 -24 74 -14 9 -51 20 -83 24 l-57 6 45
7 c164 23 165 23 168 3 2 -11 -4 -26 -15 -33z m-263 -48 c0 -8 -20 -26 -45
-41 -25 -14 -53 -40 -61 -56 -14 -27 -14 -31 1 -42 13 -10 2 -17 -72 -48 -72
-31 -94 -36 -123 -29 l-35 7 82 42 c45 23 104 61 131 84 58 52 115 98 119 98
2 0 3 -7 3 -15z m65 -55 c3 -6 3 -19 0 -30 -6 -20 -7 -20 -48 2 -37 18 -40 22
-22 29 29 11 63 11 70 -1z m-60 -42 c59 -29 58 -43 -1 -18 -25 11 -52 20 -60
20 -8 0 -14 5 -14 10 0 16 26 12 75 -12z m-653 -32 l38 -23 -48 -33 c-134 -95
-313 -255 -375 -335 -17 -22 20 10 83 70 129 123 266 237 322 266 56 29 66 27
217 -38 10 -5 12 -2 6 7 -5 9 -4 11 4 6 6 -4 9 -11 6 -16 -3 -4 0 -10 6 -12 7
-2 -29 -34 -79 -72 l-91 -67 -92 16 c-62 10 -96 21 -105 33 -14 19 -15 18 -33
-50 l-9 -38 76 -1 c126 -1 129 -13 8 -33 -135 -22 -184 -39 -227 -77 l-34 -30
40 6 c22 4 105 27 185 52 134 41 149 48 195 92 82 79 195 160 219 156 11 -2
42 -6 68 -10 83 -11 78 -27 -20 -69 -87 -38 -167 -82 -253 -141 -25 -17 -104
-52 -175 -78 -106 -40 -316 -133 -249 -111 152 49 385 138 409 155 103 76 189
124 333 184 31 13 32 13 51 -19 13 -22 17 -38 11 -47 -5 -8 -16 -37 -25 -66
-11 -39 -29 -65 -72 -108 -68 -67 -113 -97 -66 -43 56 63 96 128 90 145 -8 20
-45 13 -206 -39 -113 -36 -129 -44 -168 -85 -23 -25 -41 -51 -39 -57 2 -6 61
-21 130 -32 70 -12 148 -30 175 -41 26 -11 86 -30 135 -43 99 -26 97 -17 18
-102 -34 -37 -37 -38 -101 -37 l-65 0 53 15 c61 16 148 72 135 85 -5 5 -52 12
-104 15 -86 6 -106 3 -236 -30 -188 -48 -213 -47 -316 9 -92 49 -214 98 -231
92 -6 -2 19 -19 57 -37 37 -18 67 -36 67 -40 0 -4 -26 -13 -57 -19 -32 -6 -78
-18 -103 -25 -42 -13 -36 -14 87 -9 l132 6 43 -28 c32 -21 58 -30 98 -32 30
-1 159 -7 286 -13 l230 -11 105 34 c57 19 106 33 108 31 20 -19 4 -384 -18
-384 -3 0 -17 23 -31 51 -53 108 -37 101 -375 159 -379 65 -764 141 -880 175
-49 15 -109 38 -132 53 -40 25 -43 30 -43 70 0 50 23 168 51 263 18 61 23 69
73 102 87 58 214 123 311 160 141 54 148 53 35 -8 -133 -72 -237 -141 -254
-169 -10 -16 -11 -45 -5 -121 l7 -100 -44 -70 c-25 -38 -36 -59 -24 -45 12 14
48 58 81 97 33 40 168 165 301 279 132 114 242 213 245 220 7 18 11 18 55 -10z
m799 -13 c21 -24 18 -53 -4 -53 -19 0 -19 1 -3 19 17 19 16 20 -23 41 -23 11
-41 22 -41 25 0 9 59 -17 71 -32z m-201 -5 c0 -6 -7 -5 -15 2 -8 7 -15 17 -15
22 0 6 7 5 15 -2 8 -7 15 -17 15 -22z m-755 14 c-6 -5 -45 -33 -89 -62 -104
-72 -232 -184 -281 -249 -48 -62 -57 -52 -19 20 36 66 130 151 235 214 117 69
182 102 154 77z m915 -17 c16 -9 19 -14 9 -15 -8 0 -24 7 -35 15 -24 18 -7 19
26 0z m-570 -25 c53 -27 51 -34 -2 -11 -24 10 -50 21 -58 24 -12 4 -11 6 3 6
10 1 36 -8 57 -19z m465 10 c3 -5 -1 -10 -9 -10 -9 0 -16 5 -16 10 0 6 4 10 9
10 6 0 13 -4 16 -10z m85 -25 c14 -8 21 -14 15 -14 -5 0 -21 6 -35 14 -14 8
-20 14 -15 14 6 0 21 -6 35 -14z m-45 -38 c3 -7 -3 -37 -14 -67 l-20 -55 0 45
c-1 53 8 90 20 90 6 0 12 -6 14 -13z m18 -62 c-15 -30 -29 -53 -31 -51 -4 5
25 76 39 93 21 25 19 13 -8 -42z m-1313 26 c-8 -4 -70 -38 -138 -75 -68 -38
-126 -66 -128 -63 -9 8 246 145 271 146 6 0 3 -3 -5 -8z m1208 -128 c51 -29
58 -43 46 -91 -11 -43 -29 -52 -38 -18 -3 14 -28 43 -55 66 -36 30 -47 46 -44
61 6 23 26 19 91 -18z m69 15 c-3 -8 -6 -5 -6 6 -1 11 2 17 5 13 3 -3 4 -12 1
-19z m209 -58 c100 -49 93 -60 -36 -60 l-110 0 0 31 c0 17 5 39 11 51 14 26
49 20 135 -22z m-294 -76 c-6 -30 -41 -62 -127 -116 l-80 -50 -90 7 c-49 4
-121 13 -160 21 l-70 13 117 -5 c128 -5 137 -3 201 52 52 43 85 91 98 136 l10
38 52 -39 c36 -27 51 -44 49 -57z m-297 -44 c14 -6 -4 -9 -55 -9 -41 0 -84 4
-95 9 -14 6 4 9 55 9 41 0 84 -4 95 -9z m-195 -3 c0 -2 -17 -19 -37 -38 l-38
-34 34 38 c33 34 41 42 41 34z m395 -169 c95 -21 120 -36 130 -79 6 -26 4 -28
-72 -53 -43 -14 -82 -26 -87 -26 -16 0 68 85 97 98 16 7 27 15 24 18 -3 3 -14
1 -25 -5 -12 -6 -23 -6 -28 -1 -5 5 -59 24 -119 41 -61 17 -112 34 -115 36 -8
9 100 -7 195 -29z m394 -159 c36 -124 50 -229 31 -229 -9 0 -10 -4 -2 -13 13
-15 33 -99 34 -140 1 -15 7 -32 15 -38 33 -28 -10 -69 -72 -69 -25 0 -45 3
-45 8 0 4 -23 18 -51 32 -33 16 -45 26 -34 28 9 2 25 -4 34 -12 34 -31 141 5
141 48 0 7 -4 26 -9 42 -5 16 -14 48 -20 72 -9 32 -17 42 -34 43 -17 1 -15 3
8 8 17 4 29 11 29 17 -1 5 -15 65 -32 134 -54 228 -50 269 7 69z m112 65 c41
-42 17 -93 -52 -109 -26 -6 -27 -4 -37 47 -5 29 -13 62 -17 72 -8 17 -5 19 39
14 28 -3 56 -14 67 -24z m-651 -32 c-52 -26 -63 -27 -225 -29 l-170 -2 155 28
c85 16 187 29 225 29 l70 0 -55 -26z m780 -90 c0 -11 -18 -36 -40 -55 -43 -40
-134 -90 -144 -80 -8 9 -7 96 2 109 4 5 21 16 39 23 41 17 65 43 67 76 1 26 1
26 39 -14 20 -22 37 -49 37 -59z m-426 13 c3 -8 1 -15 -4 -15 -6 0 -10 7 -10
15 0 8 2 15 4 15 2 0 6 -7 10 -15z m441 -54 c-16 -33 -74 -79 -137 -112 -69
-35 -64 -19 7 22 82 47 114 75 126 108 5 13 12 21 15 18 3 -3 -2 -19 -11 -36z
m-406 -54 c1 -11 -42 3 -51 17 -4 6 -8 17 -8 24 0 15 58 -26 59 -41z m30 -95
c25 -21 30 -30 19 -34 -17 -7 -108 60 -108 79 0 17 39 -3 89 -45z m122 -112
c31 -25 18 -25 -23 0 -20 12 -26 20 -17 20 9 0 27 -9 40 -20z m227 -86 c73
-97 82 -118 60 -146 -13 -17 -109 -39 -157 -37 -14 1 -1 5 29 10 97 16 120 27
120 57 0 21 -19 44 -80 101 -67 62 -78 77 -69 92 5 11 13 19 18 19 4 0 40 -43
79 -96z m-228 46 c0 -5 -9 -6 -19 -3 -12 3 -17 11 -14 19 4 11 9 12 19 3 8 -6
14 -15 14 -19z m-45 -10 c7 -12 -22 -12 -50 0 -17 7 -15 9 12 9 17 1 35 -3 38
-9z m217 -72 c36 -28 38 -32 21 -39 -36 -13 -167 -20 -183 -10 -12 9 -9 11 13
11 20 0 39 11 60 34 18 18 36 34 41 35 4 0 26 -13 48 -31z m-333 -93 c20 -34
21 -35 88 -35 62 -1 66 -2 49 -15 -11 -8 -41 -15 -68 -15 -47 0 -48 0 -73 50
-29 57 -27 67 4 15z m416 26 c-14 -14 -183 -26 -170 -13 10 10 52 16 140 20
24 1 35 -2 30 -7z"/>
<path d="M2922 4200 c0 -14 2 -19 5 -12 2 6 2 18 0 25 -3 6 -5 1 -5 -13z"/>
<path d="M2753 3953 c-10 -10 -14 -15 -8 -11 5 3 13 7 17 7 4 1 18 6 30 11 23
9 23 9 2 9 -12 1 -30 -7 -41 -16z"/>
<path d="M2714 3895 c-9 -35 0 -41 14 -10 7 14 8 27 2 30 -5 3 -12 -6 -16 -20z"/>
<path d="M3148 3739 c-21 -11 -38 -22 -38 -24 0 -3 18 4 40 15 22 11 40 23 40
25 0 7 0 7 -42 -16z"/>
<path d="M3210 3513 c-27 -41 -27 -43 -5 -18 28 32 49 65 41 65 -3 0 -19 -21
-36 -47z"/>
<path d="M3015 3420 c-105 -83 -105 -82 -65 -69 70 25 157 94 148 119 -2 7
-37 -14 -83 -50z"/>
<path d="M4234 4184 c-18 -14 -18 -15 4 -4 12 6 22 13 22 15 0 8 -5 6 -26 -11z"/>
<path d="M3953 4161 c-27 -17 -63 -66 -63 -86 0 -10 41 -5 68 9 38 20 64 51
60 73 -5 25 -28 26 -65 4z m37 -14 c0 -2 -15 -14 -32 -27 l-33 -23 24 26 c21
23 41 35 41 24z"/>
<path d="M4164 4144 c-18 -14 -18 -15 4 -4 12 6 22 13 22 15 0 8 -5 6 -26 -11z"/>
<path d="M4140 3925 c-7 -8 -10 -22 -6 -30 4 -13 10 -14 26 -5 11 6 20 17 20
24 0 20 -27 27 -40 11z"/>
<path d="M1628 3884 c-38 -20 -36 -28 2 -9 17 9 30 18 30 20 0 7 -1 6 -32 -11z"/>
<path d="M3844 3874 c-18 -14 -18 -15 4 -4 12 6 22 13 22 15 0 8 -5 6 -26 -11z"/>
<path d="M3768 3834 c-38 -20 -36 -28 2 -9 17 9 30 18 30 20 0 7 -1 6 -32 -11z"/>
<path d="M1465 3784 l-30 -26 33 22 c17 12 32 23 32 26 0 7 -4 5 -35 -22z"/>
<path d="M1332 3673 c-97 -95 -174 -199 -228 -305 -50 -99 -41 -97 12 2 60
112 169 255 252 330 37 33 64 60 60 60 -4 0 -48 -39 -96 -87z"/>
<path d="M4104 3681 c-33 -20 -52 -41 -37 -41 10 0 83 49 83 55 0 9 -15 5 -46
-14z"/>
<path d="M2049 3616 c-109 -45 -225 -112 -322 -183 -98 -74 -267 -230 -212
-196 l30 18 -36 -45 c-20 -25 -50 -67 -68 -95 l-32 -50 38 44 c145 169 183
208 256 270 123 103 305 214 417 254 13 5 13 5 0 6 -8 0 -40 -10 -71 -23z"/>
<path d="M934 3508 c-75 -79 -149 -197 -168 -268 -4 -14 15 16 41 65 60 113
82 144 157 223 32 34 57 62 54 62 -3 0 -41 -37 -84 -82z"/>
<path d="M2570 3543 c-30 -19 -111 -62 -179 -95 -68 -32 -121 -61 -118 -64 8
-9 229 101 302 149 81 54 77 63 -5 10z"/>
<path d="M3429 3539 l-44 -41 48 38 c26 21 47 40 47 41 0 8 -11 0 -51 -38z"/>
<path d="M4277 3558 c-32 -11 -56 -22 -54 -24 4 -5 127 36 127 42 0 6 -11 4
-73 -18z"/>
<path d="M1893 3491 c-104 -70 -347 -313 -412 -412 -23 -35 -29 -48 -14 -29
76 94 241 275 301 331 37 34 99 82 137 107 73 47 93 62 83 62 -4 0 -47 -27
-95 -59z"/>
<path d="M3494 3491 c-38 -27 -87 -65 -109 -85 -22 -20 10 0 70 45 122 91 120
89 114 89 -3 0 -36 -22 -75 -49z"/>
<path d="M3695 3504 c-18 -16 -22 -22 -9 -15 18 9 53 42 43 41 -2 -1 -17 -12
-34 -26z"/>
<path d="M4081 3485 c-46 -19 -87 -38 -90 -41 -7 -8 -3 -7 104 36 44 18 82 34
84 36 12 11 -23 0 -98 -31z"/>
<path d="M3354 3478 l-19 -23 23 19 c12 11 22 21 22 23 0 8 -8 2 -26 -19z"/>
<path d="M3772 3471 c-8 -4 -13 -11 -12 -15 0 -4 -54 -47 -122 -96 -68 -48
-141 -104 -163 -125 -29 -26 -23 -23 25 13 36 27 118 86 183 132 64 45 117 86
117 91 0 11 -11 11 -28 0z"/>
<path d="M3279 3417 c-25 -23 -52 -51 -59 -62 -8 -11 14 7 48 40 56 54 67 66
60 65 -2 -1 -24 -20 -49 -43z"/>
<path d="M3930 3420 c-19 -11 -30 -19 -25 -19 6 0 26 8 45 19 19 11 31 19 25
19 -5 0 -26 -8 -45 -19z"/>
<path d="M1609 3393 l-24 -28 28 24 c25 23 32 31 24 31 -2 0 -14 -12 -28 -27z"/>
<path d="M1525 3318 l-50 -53 53 50 c48 46 57 55 49 55 -1 0 -25 -24 -52 -52z"/>
<path d="M4615 3310 c-11 -5 -76 -32 -145 -61 -157 -64 -445 -202 -454 -217
-7 -11 28 3 199 83 44 20 159 73 255 117 96 43 176 81 179 84 7 7 -12 3 -34
-6z"/>
<path d="M3735 3251 c-71 -26 -168 -67 -215 -90 -97 -49 -250 -148 -250 -162
0 -5 101 43 225 107 147 75 231 114 242 109 10 -3 14 -2 9 2 -4 4 27 25 71 45
107 51 74 47 -82 -11z"/>
<path d="M1046 3234 c-9 -26 -16 -52 -15 -58 0 -6 9 13 20 43 10 30 17 56 15
58 -2 2 -11 -17 -20 -43z"/>
<path d="M1703 3245 c-80 -68 -202 -263 -203 -325 0 -8 15 19 33 60 42 97 85
160 161 238 68 70 71 78 9 27z"/>
<path d="M3660 3256 c-113 -47 -229 -111 -365 -201 -77 -51 -147 -101 -155
-111 -20 -24 -10 -18 100 61 149 107 254 166 470 262 48 22 5 12 -50 -11z"/>
<path d="M1370 3139 c-55 -70 -84 -121 -115 -202 -36 -97 -31 -106 8 -12 45
106 57 129 111 203 55 75 53 82 -4 11z"/>
<path d="M3920 3155 c-14 -8 -20 -14 -15 -14 6 0 21 6 35 14 14 8 21 14 15 14
-5 0 -21 -6 -35 -14z"/>
<path d="M1021 3144 c0 -11 3 -14 6 -6 3 7 2 16 -1 19 -3 4 -6 -2 -5 -13z"/>
<path d="M636 3125 c-9 -26 -7 -32 5 -12 6 10 9 21 6 23 -2 3 -7 -2 -11 -11z"/>
<path d="M4230 3056 c-527 -249 -812 -410 -920 -521 l-45 -47 95 65 c169 115
278 177 665 375 450 231 414 211 395 211 -8 0 -94 -37 -190 -83z"/>
<path d="M1011 3104 c0 -11 3 -14 6 -6 3 7 2 16 -1 19 -3 4 -6 -2 -5 -13z"/>
<path d="M591 3014 c-17 -42 -30 -81 -27 -87 3 -8 5 -8 5 1 1 8 15 45 32 84
17 38 29 72 27 74 -2 2 -19 -31 -37 -72z"/>
<path d="M1002 3050 c0 -14 2 -19 5 -12 2 6 2 18 0 25 -3 6 -5 1 -5 -13z"/>
<path d="M1212 3017 c-47 -50 -70 -164 -53 -267 l9 -55 1 75 c1 81 16 148 49
223 11 26 20 47 18 47 -1 0 -12 -10 -24 -23z"/>
<path d="M994 2885 c0 -71 1 -99 3 -62 2 37 2 96 0 130 -2 34 -3 4 -3 -68z"/>
<path d="M3215 2932 c-17 -15 -41 -35 -55 -45 -24 -17 -24 -17 8 0 18 10 45
30 59 45 34 36 27 36 -12 0z"/>
<path d="M584 2820 c0 -58 1 -81 3 -52 2 28 2 76 0 105 -2 28 -3 5 -3 -53z"/>
<path d="M546 2873 c-10 -65 -7 -194 9 -288 30 -187 100 -336 232 -492 24 -28
42 -58 41 -65 -2 -7 3 -12 11 -10 7 1 18 -1 25 -5 7 -4 5 -1 -4 7 -37 36 -143
176 -179 238 -51 85 -93 198 -86 226 5 17 4 18 -5 6 -9 -12 -11 -10 -7 12 2
15 1 25 -3 23 -13 -8 -33 204 -27 295 6 95 4 115 -7 53z"/>
<path d="M873 2765 c0 -22 2 -30 4 -17 2 12 2 30 0 40 -3 9 -5 -1 -4 -23z"/>
<path d="M454 2695 c0 -55 1 -76 3 -47 2 29 2 74 0 100 -2 26 -3 2 -3 -53z"/>
<path d="M1012 2760 c0 -14 2 -19 5 -12 2 6 2 18 0 25 -3 6 -5 1 -5 -13z"/>
<path d="M1001 2714 c0 -11 3 -14 6 -6 3 7 2 16 -1 19 -3 4 -6 -2 -5 -13z"/>
<path d="M1022 2715 c0 -11 4 -31 8 -45 6 -20 8 -21 8 -5 0 11 -4 31 -8 45 -6
20 -8 21 -8 5z"/>
<path d="M883 2670 c0 -30 2 -43 4 -27 2 15 2 39 0 55 -2 15 -4 2 -4 -28z"/>
<path d="M901 2704 c0 -11 3 -14 6 -6 3 7 2 16 -1 19 -3 4 -6 -2 -5 -13z"/>
<path d="M915 2677 c-7 -44 23 -195 46 -239 7 -12 7 -18 1 -14 -6 3 -18 27
-28 51 -9 25 -19 44 -21 42 -6 -7 16 -59 41 -97 13 -19 44 -67 70 -106 77
-119 223 -254 326 -303 21 -10 22 -9 6 1 -189 126 -305 260 -372 429 -35 89
-62 208 -57 247 3 17 3 32 0 32 -3 0 -9 -19 -12 -43z"/>
<path d="M592 2685 c0 -16 2 -22 5 -12 2 9 2 23 0 30 -3 6 -5 -1 -5 -18z"/>
<path d="M3644 2654 c-22 -15 -45 -34 -51 -44 -10 -15 -8 -16 28 -10 39 7 63
21 87 49 32 39 -7 42 -64 5z"/>
<path d="M601 2634 c0 -11 3 -14 6 -6 3 7 2 16 -1 19 -3 4 -6 -2 -5 -13z"/>
<path d="M610 2602 c0 -7 16 -53 35 -103 64 -167 164 -316 308 -458 106 -104
142 -129 168 -113 15 10 21 8 33 -10 9 -12 18 -19 21 -16 7 7 -55 78 -67 78
-5 0 -8 -7 -8 -16 0 -8 5 -12 10 -9 6 3 10 1 10 -4 0 -26 -45 -7 -98 42 -185
171 -309 347 -382 545 -16 42 -29 71 -30 64z"/>
<path d="M891 2584 c0 -11 3 -14 6 -6 3 7 2 16 -1 19 -3 4 -6 -2 -5 -13z"/>
<path d="M464 2550 c5 -48 45 -185 52 -178 2 3 -3 25 -11 49 -9 24 -22 74 -30
109 -12 52 -14 56 -11 20z"/>
<path d="M3407 2373 c-10 -10 -8 -33 3 -33 5 0 14 9 20 20 8 15 8 20 -3 20 -8
0 -17 -3 -20 -7z"/>
<path d="M1190 2359 c0 -15 46 -85 138 -209 53 -71 153 -183 261 -291 l176
-177 -89 -6 c-49 -4 -114 -16 -145 -26 -66 -24 -61 -23 -61 -5 0 18 -17 20
-23 3 -3 -9 -12 -6 -29 10 -31 28 -47 29 -22 1 23 -26 74 -49 110 -49 14 0 39
-9 55 -21 29 -20 29 -20 29 0 0 11 4 23 10 26 11 7 87 -32 108 -55 12 -13 13
-12 9 8 -9 42 19 23 46 -31 14 -30 32 -58 39 -64 26 -21 56 -24 72 -8 9 9 16
12 16 6 0 -15 79 -71 101 -71 31 0 50 27 38 57 -15 41 -5 37 36 -12 27 -33 43
-45 59 -43 16 2 21 9 19 31 -2 38 11 34 34 -10 25 -48 60 -73 118 -84 51 -9
85 1 85 26 0 8 4 15 9 15 11 0 100 -70 120 -94 21 -25 75 -52 69 -34 -3 7 -14
14 -26 16 -14 2 -24 13 -28 28 -8 32 2 41 26 26 11 -7 20 -8 20 -2 0 14 -41
33 -50 23 -4 -4 -10 -17 -12 -27 -3 -18 -5 -17 -22 9 -19 28 -19 29 5 48 17
14 31 17 54 12 47 -11 54 -11 57 0 3 11 -4 15 -202 108 -74 35 -171 89 -215
121 -103 75 -215 131 -340 172 -61 20 -89 33 -72 33 67 2 263 -84 442 -193
111 -68 262 -145 334 -171 l39 -13 -10 36 c-19 77 -29 90 -86 120 -74 39 -292
125 -299 119 -3 -3 18 -22 46 -43 29 -20 50 -39 47 -41 -2 -3 -102 41 -221 98
l-216 103 -75 97 c-91 120 -97 133 -58 123 47 -12 339 -118 474 -172 209 -84
240 -100 300 -157 31 -30 63 -55 70 -55 7 0 69 -29 136 -65 68 -36 128 -65
133 -65 13 0 6 38 -31 164 -31 106 -82 216 -99 216 -6 0 -46 -15 -89 -34 -96
-42 -168 -64 -197 -60 -12 2 -68 22 -125 45 -57 22 -177 69 -268 104 -91 35
-203 81 -250 103 -47 22 -152 63 -234 91 -138 48 -158 58 -248 126 -54 41 -98
70 -98 64z m720 -684 c27 -14 73 -34 102 -46 82 -32 359 -161 355 -166 -11
-10 -457 186 -502 221 -30 23 -11 19 45 -9z m-90 -143 c0 -14 -11 -21 -26 -15
-8 3 -11 9 -8 14 7 11 34 12 34 1z m460 -157 c0 -8 -4 -15 -10 -15 -5 0 -10 7
-10 15 0 8 5 15 10 15 6 0 10 -7 10 -15z m80 0 c0 -8 -4 -15 -9 -15 -13 0 -22
16 -14 24 11 11 23 6 23 -9z m108 4 c-2 -6 -8 -10 -13 -10 -5 0 -11 4 -13 10
-2 6 4 11 13 11 9 0 15 -5 13 -11z"/>
<path d="M520 2357 c0 -14 62 -132 108 -202 48 -72 207 -245 225 -245 6 0 -28
39 -75 88 -94 96 -181 209 -172 223 3 5 0 9 -5 9 -6 0 -26 30 -45 68 -19 37
-35 63 -36 59z"/>
<path d="M905 2333 c77 -120 207 -259 308 -331 74 -52 55 -31 -33 36 -83 65
-165 154 -239 260 -44 62 -69 87 -36 35z"/>
<path d="M1190 2235 c19 -19 36 -35 39 -35 3 0 -10 16 -29 35 -19 19 -36 35
-39 35 -3 0 10 -16 29 -35z"/>
<path d="M3425 2038 c-35 -41 -14 -51 26 -12 16 15 29 31 29 36 0 19 -30 6
-55 -24z"/>
<path d="M1740 2010 c72 -62 219 -139 620 -325 91 -42 171 -79 179 -82 26 -11
-71 117 -103 136 -27 17 -254 114 -593 254 -62 26 -118 47 -125 47 -7 0 3 -14
22 -30z"/>
<path d="M1083 2023 c-7 -2 -12 -17 -12 -31 2 -24 2 -24 6 -4 5 26 50 32 59 7
4 -8 11 -15 18 -15 6 0 -2 12 -17 25 -29 26 -33 27 -54 18z"/>
<path d="M3262 2019 c2 -7 10 -15 17 -17 8 -3 12 1 9 9 -2 7 -10 15 -17 17 -8
3 -12 -1 -9 -9z"/>
<path d="M3455 2010 c-3 -5 -1 -10 4 -10 6 0 11 5 11 10 0 6 -2 10 -4 10 -3 0
-8 -4 -11 -10z"/>
<path d="M930 2002 c0 -5 9 -17 20 -27 11 -10 20 -13 20 -8 0 6 -7 14 -16 17
-8 3 -12 10 -9 16 3 5 1 10 -4 10 -6 0 -11 -4 -11 -8z"/>
<path d="M852 1968 c5 -15 28 -23 28 -10 0 5 -7 13 -16 16 -10 4 -14 1 -12 -6z"/>
<path d="M1304 1972 c4 -7 3 -12 -3 -12 -5 0 -11 -12 -13 -27 -2 -20 -9 -28
-23 -29 -11 -1 -26 -2 -32 -3 -7 -1 -13 -5 -13 -10 0 -4 11 -6 25 -3 20 3 27
-1 35 -22 13 -34 21 -33 14 2 -5 25 -2 30 25 42 38 15 56 4 66 -42 5 -22 10
-27 16 -17 4 7 5 16 1 19 -4 3 -13 18 -20 34 -11 24 -17 28 -43 24 -28 -4 -30
-3 -26 19 2 13 0 26 -6 30 -6 3 -7 1 -3 -5z"/>
<path d="M515 1896 c50 -24 115 -58 145 -76 30 -18 138 -78 240 -133 260 -140
367 -208 425 -269 51 -53 47 -52 -40 19 -69 56 -282 180 -386 225 -48 20 -163
62 -255 93 -93 31 -180 63 -194 72 -38 24 -11 -1 120 -107 63 -52 167 -144
230 -205 192 -184 440 -359 563 -396 50 -15 319 -60 345 -58 4 0 -47 19 -113
43 -188 67 -330 136 -523 251 -204 124 -283 178 -332 230 -35 36 -34 35 55
-18 114 -68 424 -237 529 -288 81 -40 122 -51 98 -27 -31 31 -1 20 141 -51 83
-42 226 -106 317 -143 91 -37 202 -83 248 -103 46 -20 86 -35 88 -32 3 2 -28
23 -68 45 -83 45 -131 81 -109 82 8 0 76 -24 150 -54 136 -54 402 -142 646
-213 106 -31 125 -39 100 -43 -24 -5 0 -14 120 -47 385 -107 903 -219 922
-199 4 3 -1 6 -9 6 -54 0 -608 203 -608 223 0 2 107 -29 238 -70 231 -72 537
-153 570 -153 10 1 -53 22 -138 48 -189 58 -280 93 -385 145 -134 66 -275 173
-275 207 0 5 16 0 35 -11 34 -20 178 -83 358 -157 48 -20 83 -39 77 -42 -16
-10 65 -31 86 -23 10 4 15 2 11 -3 -11 -18 325 -85 418 -83 29 1 12 7 -65 24
-199 43 -589 169 -708 229 -37 18 -85 39 -107 46 -56 18 -115 49 -115 60 0 17
32 11 46 -7 12 -17 13 -16 14 5 0 13 -7 36 -15 53 -13 25 -19 28 -35 19 -24
-13 -26 -22 -4 -13 9 3 20 0 25 -8 14 -23 11 -29 -16 -29 -32 0 -33 -28 -5
-102 11 -29 20 -54 20 -56 0 -1 -27 12 -61 29 -34 16 -63 28 -66 25 -7 -7 74
-64 141 -98 32 -16 56 -31 54 -33 -5 -5 -225 83 -283 113 -51 26 -153 105
-182 140 -38 45 -36 17 2 -33 l37 -47 -34 25 c-18 14 -47 47 -63 73 -28 44
-30 45 -35 23 -6 -22 -9 -19 -38 31 -18 30 -32 59 -32 63 0 5 -4 5 -10 2 -23
-14 -10 -66 28 -108 21 -23 44 -51 52 -61 15 -20 15 -20 -19 0 -48 27 -107 97
-153 181 -50 92 -61 99 -52 34 4 -28 4 -51 0 -51 -3 0 -18 18 -32 40 -34 51
-42 45 -16 -12 18 -41 64 -90 142 -150 44 -35 27 -37 -22 -3 -43 29 -56 32
-37 8 13 -16 12 -17 -3 -5 -10 8 -16 18 -15 23 1 5 -10 19 -24 31 -14 13 -61
62 -104 111 -43 48 -82 87 -86 87 -23 0 67 -148 145 -238 l41 -47 -35 26 c-19
14 -60 44 -90 66 -30 23 -98 62 -150 88 -106 53 -207 117 -260 166 -22 21 -46
33 -67 34 -18 1 -33 -1 -33 -4 0 -3 19 -25 43 -50 l42 -45 -43 33 c-23 18 -49
42 -56 53 -24 33 -128 100 -139 89 -7 -7 -6 -15 2 -25 21 -25 182 -141 244
-176 86 -48 61 -49 -35 -1 -153 75 -253 151 -331 251 -25 31 -27 32 -21 10 6
-23 3 -22 -33 13 -94 90 -74 8 26 -108 14 -17 -10 6 -55 50 -100 99 -146 135
-172 135 -24 0 -137 62 -170 93 -13 12 -32 36 -42 52 -11 17 -30 37 -44 44
-31 17 -73 7 -81 -18 -5 -18 -8 -18 -33 -5 -15 8 -33 14 -39 14 -7 0 -37 25
-68 55 -81 82 -118 68 -76 -29 12 -28 25 -57 28 -65 13 -31 -17 2 -56 60 -32
48 -41 71 -41 105 0 34 5 46 21 54 15 9 24 8 35 -1 8 -6 17 -10 19 -7 12 12
-26 30 -51 24 -29 -8 -59 -66 -49 -97 4 -13 2 -18 -7 -15 -144 48 -387 116
-413 116 -5 0 31 -20 80 -44z m510 -126 c32 -32 62 -57 66 -55 4 3 6 -3 5 -12
0 -9 5 -18 12 -20 7 -3 10 1 6 11 -7 18 21 23 31 6 9 -14 25 -12 25 3 0 17 36
50 49 46 16 -6 502 -512 497 -517 -3 -3 -56 44 -117 102 -62 59 -144 133 -183
164 -39 31 -95 80 -123 109 -29 29 -58 53 -64 53 -15 0 39 -92 95 -162 57 -70
55 -69 -74 27 -52 39 -124 91 -158 115 -65 45 -142 138 -142 172 0 29 12 22
75 -42z m-340 -61 c22 -11 29 -16 15 -13 -14 4 -43 15 -65 25 -22 11 -29 16
-15 13 14 -4 43 -15 65 -25z m115 -49 l35 -19 -47 -1 c-27 0 -48 5 -48 10 0 6
8 10 18 10 14 0 15 2 2 10 -27 17 4 10 40 -10z m320 -155 c36 -24 79 -58 95
-76 22 -23 12 -18 -37 19 -37 28 -97 67 -133 87 -36 20 -65 39 -65 41 0 10 81
-30 140 -71z m320 -50 c13 -14 21 -25 18 -25 -2 0 -15 11 -28 25 -13 14 -21
25 -18 25 2 0 15 -11 28 -25z m513 -283 c92 -62 167 -115 167 -118 0 -9 -107
53 -215 124 -93 61 -295 243 -295 265 0 5 40 -28 88 -74 52 -50 157 -131 255
-197z m257 -68 c0 -13 -130 57 -150 81 -7 8 24 -6 69 -31 44 -25 81 -48 81
-50z m750 -248 c80 -42 140 -76 134 -76 -20 0 -307 148 -339 175 l-30 25 45
-24 c25 -14 110 -58 190 -100z"/>
<path d="M980 1915 c-15 -19 -6 -45 16 -45 16 0 16 2 -1 20 -17 18 -17 20 -1
26 10 4 22 2 29 -5 6 -6 7 -11 2 -11 -6 0 -5 -4 0 -8 6 -4 21 -21 33 -38 27
-40 55 -48 71 -21 11 17 11 19 -3 14 -12 -5 -16 0 -16 18 0 13 -5 27 -11 30
-7 5 -8 -5 -4 -29 8 -39 -9 -52 -20 -16 -3 11 -10 20 -14 20 -5 0 -14 14 -21
30 -13 33 -40 39 -60 15z"/>
<path d="M1410 1840 c0 -5 5 -10 11 -10 5 0 7 5 4 10 -3 6 -8 10 -11 10 -2 0
-4 -4 -4 -10z"/>
<path d="M1450 1841 c0 -6 5 -13 10 -16 6 -3 10 1 10 9 0 9 -4 16 -10 16 -5 0
-10 -4 -10 -9z"/>
<path d="M1540 1841 c0 -6 5 -13 10 -16 6 -3 10 1 10 9 0 9 -4 16 -10 16 -5 0
-10 -4 -10 -9z"/>
<path d="M3555 1840 c-65 -14 -138 -44 -143 -59 -3 -10 3 -12 24 -8 16 3 67
13 114 22 56 11 111 15 160 11 l75 -5 -41 19 c-49 23 -134 32 -189 20z"/>
<path d="M3683 1773 c15 -2 37 -2 50 0 12 2 0 4 -28 4 -27 0 -38 -2 -22 -4z"/>
<path d="M3547 1750 c-32 -10 -62 -22 -65 -26 -4 -4 2 -4 13 0 11 4 52 16 90
26 39 11 59 19 45 19 -14 0 -51 -8 -83 -19z"/>
<path d="M1510 1710 c0 -5 5 -10 10 -10 6 0 10 5 10 10 0 6 -4 10 -10 10 -5 0
-10 -4 -10 -10z"/>
<path d="M489 1667 c24 -27 41 -34 41 -19 0 4 -15 16 -32 26 l-33 19 24 -26z"/>
<path d="M2600 1585 c24 -36 54 -97 69 -134 14 -37 33 -78 42 -91 l15 -23 41
26 42 26 48 -20 c26 -12 62 -32 78 -44 17 -12 51 -32 78 -44 26 -12 47 -26 47
-31 0 -6 -22 1 -50 15 -27 14 -54 25 -60 25 -6 0 -21 9 -32 20 -44 40 -138 47
-138 9 0 -6 4 -7 10 -4 5 3 26 3 46 -1 26 -5 43 -17 64 -45 28 -40 39 -41 41
-5 0 16 3 14 12 -10 7 -17 27 -44 45 -59 27 -22 35 -25 48 -15 8 7 13 18 11
24 -2 6 19 26 47 44 62 40 87 38 158 -14 27 -20 51 -34 54 -31 8 8 -73 72
-156 123 -137 85 -489 276 -593 323 -5 2 10 -27 33 -64z m346 -163 c124 -65
194 -114 194 -135 0 -7 -9 -1 -20 13 -16 21 -20 22 -20 7 0 -10 -5 -15 -10
-12 -7 4 -8 11 -1 18 7 9 -37 36 -155 97 -90 46 -164 88 -164 92 0 10 32 -5
176 -80z m-194 -27 c0 -5 -5 -11 -11 -13 -6 -2 -11 4 -11 13 0 9 5 15 11 13 6
-2 11 -8 11 -13z m263 -174 c-3 -6 3 -14 12 -20 10 -6 13 -11 8 -11 -13 0 -35
20 -35 32 0 4 5 8 11 8 5 0 8 -4 4 -9z"/>
<path d="M420 1615 c35 -20 62 -19 36 0 -11 8 -29 15 -40 15 -19 -1 -19 -2 4
-15z"/>
<path d="M3435 1615 c-39 -17 -32 -17 30 0 30 8 40 14 25 14 -14 0 -38 -6 -55
-14z"/>
<path d="M3375 1550 c-3 -5 1 -10 10 -10 9 0 13 5 10 10 -3 6 -8 10 -10 10 -2
0 -7 -4 -10 -10z"/>
<path d="M557 1519 c64 -109 159 -164 301 -176 l77 -6 -25 28 c-38 41 -191
140 -254 164 -31 12 -70 21 -87 21 l-30 0 18 -31z"/>
<path d="M2593 1500 c11 -27 23 -48 25 -46 4 5 -35 96 -42 96 -2 0 5 -22 17
-50z"/>
<path d="M3455 1480 c-11 -4 -32 -5 -48 -3 -19 4 -39 -2 -67 -22 -22 -15 -40
-32 -40 -36 0 -5 19 4 42 21 49 36 83 40 75 10 -7 -27 6 -25 40 4 30 26 30 38
-2 26z"/>
<path d="M3542 1455 c-29 -13 -152 -94 -152 -101 0 -9 54 15 104 47 84 53 109
36 65 -46 -17 -32 -18 -37 -4 -25 20 17 75 110 75 128 0 16 -47 15 -88 -3z"/>
<path d="M3673 1414 l-28 -25 33 22 c17 13 32 24 32 26 0 8 -11 1 -37 -23z"/>
<path d="M3810 1426 c-54 -20 -152 -71 -180 -94 -14 -11 20 2 75 29 55 27 129
56 165 64 63 13 64 13 20 14 -25 0 -61 -6 -80 -13z"/>
<path d="M3146 1412 c-3 -6 1 -13 10 -16 23 -9 28 -2 10 13 -8 7 -17 8 -20 3z"/>
<path d="M3480 1339 c-36 -32 -61 -59 -57 -59 14 0 138 108 129 113 -4 3 -36
-22 -72 -54z"/>
<path d="M2035 1380 c3 -5 10 -10 16 -10 5 0 9 5 9 10 0 6 -7 10 -16 10 -8 0
-12 -4 -9 -10z"/>
<path d="M2645 1369 c-9 -14 -2 -20 14 -10 8 6 9 11 3 15 -6 3 -14 1 -17 -5z"/>
<path d="M3271 1344 c0 -11 3 -14 6 -6 3 7 2 16 -1 19 -3 4 -6 -2 -5 -13z"/>
<path d="M2150 1332 c0 -11 90 -85 96 -79 2 2 1 13 -3 25 -3 15 -12 22 -23 20
-10 -2 -30 8 -44 21 -14 14 -26 19 -26 13z"/>
<path d="M2617 1297 c-4 -10 3 -12 24 -9 16 2 26 8 23 13 -8 14 -41 11 -47 -4z"/>
<path d="M3579 1293 c-13 -16 -12 -17 4 -4 16 13 21 21 13 21 -2 0 -10 -8 -17
-17z"/>
<path d="M2260 1298 c0 -39 65 -94 171 -148 39 -20 42 -20 28 -4 -9 11 -31 46
-47 79 -30 57 -31 58 -32 28 0 -46 -24 -43 -77 9 -24 23 -43 39 -43 36z"/>
<path d="M3275 1290 c-3 -5 -2 -10 4 -10 5 0 13 5 16 10 3 6 2 10 -4 10 -5 0
-13 -4 -16 -10z"/>
<path d="M3945 1269 c-41 -9 -108 -39 -102 -45 2 -2 15 0 28 4 13 5 48 13 77
17 50 7 66 18 40 27 -7 3 -26 1 -43 -3z"/>
<path d="M3098 1219 c-17 -9 -17 -11 2 -31 22 -24 40 -17 20 7 -8 10 -9 15 -1
15 6 0 11 5 11 10 0 13 -10 12 -32 -1z"/>
<path d="M3155 1210 c3 -5 8 -10 11 -10 2 0 4 5 4 10 0 6 -5 10 -11 10 -5 0
-7 -4 -4 -10z"/>
<path d="M2792 1198 c-19 -19 -14 -29 7 -16 17 10 23 9 40 -6 12 -11 21 -15
21 -9 0 12 -33 43 -46 43 -6 0 -15 -5 -22 -12z"/>
<path d="M3318 1194 c-16 -8 -28 -19 -28 -24 0 -14 12 -12 34 5 47 35 96 2 96
-64 0 -41 5 -38 13 6 5 26 1 39 -19 63 -28 33 -54 37 -96 14z"/>
<path d="M949 1150 c22 -19 71 -28 71 -14 0 15 -37 33 -65 33 l-30 0 24 -19z"/>
<path d="M3159 1155 c-23 -13 -59 -55 -59 -70 0 -3 16 10 35 30 28 28 43 35
74 35 40 0 96 -34 86 -51 -4 -5 -1 -9 4 -9 14 0 13 21 -2 41 -30 39 -91 50
-138 24z"/>
<path d="M1055 1151 c-12 -21 94 -75 112 -57 14 14 -57 66 -91 66 -8 0 -17 -4
-21 -9z"/>
<path d="M1166 1151 c-10 -16 40 -43 71 -39 l28 3 -25 16 c-35 23 -67 32 -74
20z"/>
<path d="M3370 1142 c0 -31 -12 -33 -39 -10 l-26 23 20 -25 c11 -14 21 -26 21
-28 6 -11 42 25 41 40 -2 24 -17 23 -17 0z"/>
<path d="M2940 1140 c-12 -8 -9 -10 13 -10 15 0 27 5 27 10 0 13 -20 13 -40 0z"/>
<path d="M3440 1093 c0 -25 4 -33 18 -33 40 0 59 -57 23 -67 -16 -4 -18 -8 -9
-23 14 -21 3 -54 -14 -44 -10 5 -10 4 -1 -6 17 -19 35 -1 31 31 -5 32 3 37 22
14 12 -14 11 -25 -5 -70 -7 -20 -6 -20 9 -1 20 24 21 60 2 78 -8 8 -11 26 -9
44 4 24 -1 35 -19 50 -13 10 -29 28 -36 39 -10 18 -11 17 -12 -12z"/>
<path d="M3028 1099 c-10 -5 -18 -17 -18 -26 0 -15 2 -15 18 0 10 10 26 17 35
17 9 0 17 5 17 10 0 13 -30 12 -52 -1z"/>
<path d="M1421 1077 c14 -16 253 -111 354 -142 249 -75 754 -184 925 -199 56
-5 44 0 -95 37 -351 96 -616 170 -740 208 -71 22 -193 51 -269 64 -77 14 -149
28 -160 31 -12 4 -19 4 -15 1z"/>
<path d="M3317 1074 c-8 -8 1 -24 14 -24 5 0 9 7 9 15 0 15 -12 20 -23 9z"/>
<path d="M3390 1044 c0 -8 5 -12 10 -9 6 4 8 11 5 16 -9 14 -15 11 -15 -7z"/>
<path d="M1460 1016 c0 -2 35 -24 78 -49 84 -48 236 -111 292 -121 l35 -5 -36
19 c-20 10 -83 37 -140 58 -57 22 -132 53 -166 71 -35 17 -63 29 -63 27z"/>
<path d="M3455 1010 c-3 -5 -2 -10 4 -10 5 0 13 5 16 10 3 6 2 10 -4 10 -5 0
-13 -4 -16 -10z"/>
<path d="M3060 991 c0 -45 93 -133 170 -160 26 -8 13 8 -67 84 -54 52 -99 95
-100 95 -2 0 -3 -8 -3 -19z"/>
<path d="M1930 838 c68 -58 401 -180 630 -232 280 -62 502 -87 780 -85 162 1
183 3 126 10 -138 18 -785 131 -946 165 -208 44 -417 98 -528 135 -80 26 -85
27 -62 7z"/>
<path d="M3765 705 c17 -8 37 -14 45 -14 8 0 -1 7 -20 14 -46 18 -64 17 -25 0z"/>
</g>
</svg>